<svg xmlns="http://www.w3.org/2000/svg" viewBox="0 0 199.85 173.08"><defs><style>.cls-1{fill:#33b8c2;}.cls-2,.cls-5{fill:#e8e8e8;}.cls-2{fill-rule:evenodd;}.cls-3{fill:#fff;}.cls-4{fill:#bababa;}</style></defs><g id="Capa_2" data-name="Capa 2"><g id="Capa_1-2" data-name="Capa 1"><polygon class="cls-1" points="149.89 0 49.96 0 0 86.54 49.96 173.07 149.89 173.07 199.85 86.54 149.89 0"/><path class="cls-2" d="M133,88V102.5a33.1,33.1,0,0,1-29.55,32.91H96.38A33.1,33.1,0,0,1,66.82,102.5V88A18.63,18.63,0,0,1,78.65,70.68a18.43,18.43,0,0,1,6.79-1.28h29A18.6,18.6,0,0,1,133,88Z"/><path class="cls-2" d="M96.54,101.43a3.15,3.15,0,0,1,.45-.92A3.74,3.74,0,0,0,96.54,101.43Z"/><path class="cls-2" d="M97.42,100a3.42,3.42,0,0,1,1.45-.88A3.55,3.55,0,0,0,97.42,100Z"/><path class="cls-2" d="M101,99.11a3.42,3.42,0,0,1,1.45.88A3.55,3.55,0,0,0,101,99.11Z"/><path class="cls-2" d="M103.31,101.43a3.74,3.74,0,0,0-.45-.92A3.15,3.15,0,0,1,103.31,101.43Z"/><path class="cls-3" d="M133,101.31V94.22h14.18a3.55,3.55,0,1,1,0,7.09Z"/><path class="cls-3" d="M125.91,123a32.71,32.71,0,0,0,3.79-6l12,6a3.54,3.54,0,1,1-3.17,6.34Z"/><path class="cls-3" d="M70.15,117a32.71,32.71,0,0,0,3.79,6l-12.62,6.31A3.54,3.54,0,1,1,58.15,123Z"/><path class="cls-3" d="M66.82,94.22H52.64a3.55,3.55,0,1,0,0,7.09H66.82Z"/><path class="cls-3" d="M125.24,72.87l13.29-6.65a3.55,3.55,0,1,1,3.17,6.35l-11.42,5.71A18.71,18.71,0,0,0,125.24,72.87Z"/><path class="cls-3" d="M74.61,72.87a18.71,18.71,0,0,0-5,5.41L58.15,72.57a3.55,3.55,0,1,1,3.17-6.35Z"/><path class="cls-4" d="M121.2,70.68V67a21.28,21.28,0,1,0-42.55,0v3.65a18.43,18.43,0,0,1,6.79-1.28h29A18.43,18.43,0,0,1,121.2,70.68Z"/><path class="cls-5" d="M73.33,39.06a3.56,3.56,0,0,0,1,4.92l11.15,7.43A21.56,21.56,0,0,1,92,47.26L78.25,38.07A3.56,3.56,0,0,0,73.33,39.06Z"/><path class="cls-5" d="M114.38,51.41a21.56,21.56,0,0,0-6.56-4.15l13.78-9.19A3.55,3.55,0,0,1,125.54,44Z"/><path class="cls-2" d="M96.54,101.43a3.15,3.15,0,0,1,.45-.92A3.74,3.74,0,0,0,96.54,101.43Z"/><path class="cls-2" d="M97.42,100a3.42,3.42,0,0,1,1.45-.88A3.55,3.55,0,0,0,97.42,100Z"/><path class="cls-2" d="M101,99.11a3.42,3.42,0,0,1,1.45.88A3.55,3.55,0,0,0,101,99.11Z"/><path class="cls-2" d="M103.31,101.43a3.74,3.74,0,0,0-.45-.92A3.15,3.15,0,0,1,103.31,101.43Z"/><path class="cls-4" d="M119.59,114.91,101.06,96.38a11.14,11.14,0,0,0,.63-3.67A11.47,11.47,0,0,0,90.23,81.25a11.59,11.59,0,0,0-2.89.38,1.43,1.43,0,0,0-.65,2.4l3.79,3.79a2.86,2.86,0,0,1,0,4.05L89.39,93a2.86,2.86,0,0,1-4,0l-3.79-3.79a1.43,1.43,0,0,0-1-.41,1.28,1.28,0,0,0-.38,0,1.43,1.43,0,0,0-1,1,11.59,11.59,0,0,0-.38,2.89,11.47,11.47,0,0,0,11.46,11.46,11.14,11.14,0,0,0,3.67-.63l18.53,18.53a5.06,5.06,0,0,0,7.16-7.16Zm-3.58,5a1.43,1.43,0,1,1,1.44-1.43A1.43,1.43,0,0,1,116,119.92Z"/></g></g></svg>