<svg xmlns="http://www.w3.org/2000/svg" viewBox="0 0 199.85 173.08"><defs><style>.cls-1{fill:#33b8c2;}.cls-2{fill:#fff;}</style></defs><g id="Capa_2" data-name="Capa 2"><g id="Capa_1-2" data-name="Capa 1"><polygon class="cls-1" points="149.89 0 49.96 0 0 86.54 49.96 173.07 149.89 173.07 199.85 86.54 149.89 0"/><path class="cls-2" d="M132.23,105.41c5.22,2.85,8.2,7.94,7.83,13-.25,3.1-.38,3.23-4.35,3.72-2.48.38-18.12.5-34.26.5-18.25,0-37.36-.37-38.73-.75-5.46-1.36-2.48-11.29,4.72-16,5.59-3.6,17-9.06,20.11-9.68,4.22-.87,4.72-3.48,0-11.92-1.11-1.86-2.36-7.57-2.48-13.53C85,61.09,86.81,54.51,95.25,51.28a15.18,15.18,0,0,1,5.09-.87c5.58,0,10.8,3.11,12.91,7.7,3.1,6.08,1.86,22.35-1.37,28.18-3.72,6.58-3.35,8.69.75,9.81,2.73.75,11.17,4.72,19.61,9.31Zm-67.52-3.73a28.54,28.54,0,0,0-5.34,4.85c-4.72,0-8.32-.13-8.69-.25-3.1-.75-1.37-6.46,2.73-8.94,3.1-2,9.43-5.09,11.17-5.46,2.24-.5,2.74-1.87,0-6.58-.62-1-1.36-4.22-1.36-7.57-.13-5.46,1-9.19,5.71-10.8a8.14,8.14,0,0,1,10,3.72c1.62,3.48.75,12.42-1,15.65-2,3.84-1.61,4.84.62,5.46A27.12,27.12,0,0,1,81.47,93a139.15,139.15,0,0,0-16.76,8.69ZM146.39,97c3,1.62,4.59,4.35,4.34,7.21-.12,1.74-.12,1.86-2.36,2.11a68.06,68.06,0,0,1-7.2.25,19.21,19.21,0,0,0-6.58-5.47,162.3,162.3,0,0,0-15.88-8.19,25.05,25.05,0,0,1,2.85-1c2.36-.5,2.73-1.87,0-6.58a20.79,20.79,0,0,1-1.37-7.57c-.12-5.46.87-9.19,5.59-10.8,4.1-1.49,8.56.37,10.05,3.72s1,12.42-.74,15.65c-2,3.84-1.74,4.84.37,5.46A112.76,112.76,0,0,1,146.38,97Z"/></g></g></svg>