<svg xmlns="http://www.w3.org/2000/svg" viewBox="0 0 199.85 173.08"><defs><style>.cls-1{fill:#33b8c2;}.cls-2{fill:#d8d8d8;}.cls-3{fill:#cdcccc;}.cls-4{fill:#e8e8e8;}.cls-5{fill:#fff;}.cls-6{fill:#bababa;}</style></defs><g id="Capa_2" data-name="Capa 2"><g id="Capa_1-2" data-name="Capa 1"><polygon class="cls-1" points="149.89 0 49.96 0 0 86.54 49.96 173.07 149.89 173.07 199.85 86.54 149.89 0"/><rect id="Rectangle-path" class="cls-2" x="87.73" y="108.9" width="16.27" height="8.13"/><path id="Shape" class="cls-3" d="M112.12,117H74.51a1,1,0,0,0-1,.87v4.36a1,1,0,0,0,1,.87h37.61Z"/><path id="Shape-2" data-name="Shape" class="cls-4" d="M141.56,45.87H50.15a1.07,1.07,0,0,0-1.06,1.07v60.89a1.07,1.07,0,0,0,1.06,1.07h64.78v-32a1.46,1.46,0,0,1,1.45-1.47h26.24V46.94A1.06,1.06,0,0,0,141.56,45.87Z"/><path id="Shape-3" data-name="Shape" class="cls-5" d="M53.16,96.09a.62.62,0,0,0,.63.61h59.93v-21a1.42,1.42,0,0,1,1.44-1.4h21.36V56H53.16Z"/><path id="Shape-4" data-name="Shape" class="cls-6" d="M56.68,96.09V56H53.16V96.09a.58.58,0,0,0,.54.61h3.53A.58.58,0,0,1,56.68,96.09Z"/><circle id="Oval" class="cls-6" cx="95.66" cy="102.6" r="3.05"/><path id="Shape-5" data-name="Shape" class="cls-4" d="M113.75,78.4H102.2a.66.66,0,0,0-.65.65V92a.66.66,0,0,0,.65.65h11.55Z"/><path id="Shape-6" data-name="Shape" class="cls-4" d="M116.58,73.2h9.78V61a1,1,0,0,0-1-.93H66.41a1,1,0,0,0-1,.93V73.41a1,1,0,0,0,1,.93h48.71A1.42,1.42,0,0,1,116.58,73.2Z"/><path id="Shape-7" data-name="Shape" class="cls-3" d="M135.89,49.94H53.79a.69.69,0,0,0-.63.74V56h83.36V50.68A.69.69,0,0,0,135.89,49.94Z"/><path id="Shape-8" data-name="Shape" class="cls-6" d="M57.23,49.94H53.7c-.3,0-.54.33-.54.74V56h3.52V50.68C56.68,50.27,56.93,49.94,57.23,49.94Z"/><g id="Group"><path id="Shape-9" data-name="Shape" class="cls-4" d="M83.38,81.9H67a1.65,1.65,0,0,1,0-3.28h16.4a1.65,1.65,0,0,1,0,3.28Z"/><path id="Shape-10" data-name="Shape" class="cls-4" d="M83.38,87.27H67A1.66,1.66,0,0,1,67,84h16.4a1.66,1.66,0,0,1,0,3.29Z"/><path id="Shape-11" data-name="Shape" class="cls-4" d="M83.38,92.63H67a1.66,1.66,0,0,1,0-3.29h16.4a1.66,1.66,0,0,1,0,3.29Z"/><path id="Shape-12" data-name="Shape" class="cls-4" d="M96.25,81.9H87.81a1.65,1.65,0,0,1,0-3.28h8.44a1.65,1.65,0,0,1,0,3.28Z"/><path id="Shape-13" data-name="Shape" class="cls-4" d="M96.25,87.27H87.81a1.66,1.66,0,0,1,0-3.29h8.44a1.66,1.66,0,0,1,0,3.29Z"/><path id="Shape-14" data-name="Shape" class="cls-4" d="M96.25,92.63H87.81a1.66,1.66,0,0,1,0-3.29h8.44a1.66,1.66,0,0,1,0,3.29Z"/></g><path id="Shape-15" data-name="Shape" class="cls-2" d="M149.18,72.3A1.65,1.65,0,0,1,150.76,74V125.5a1.64,1.64,0,0,1-1.58,1.7H113.7a1.64,1.64,0,0,1-1.58-1.7V74a1.65,1.65,0,0,1,1.58-1.71Z"/><path id="Shape-16" data-name="Shape" class="cls-5" d="M115.16,117a1,1,0,0,1-1-1V75.35a1,1,0,0,1,1-1h30.53a1,1,0,0,1,1,1V116a1,1,0,0,1-1,1Z"/><path id="Shape-17" data-name="Shape" class="cls-6" d="M119,116V75.35a1.13,1.13,0,0,1,1.23-1h-4.87a1.13,1.13,0,0,0-1.23,1V116a1.14,1.14,0,0,0,1.23,1h4.87A1.14,1.14,0,0,1,119,116Z"/><path id="Shape-18" data-name="Shape" class="cls-6" d="M129.45,123.14a1,1,0,0,1-1.06-.85V122a1,1,0,0,1,1.06-.85h4a1,1,0,0,1,1.06.85v.34a1,1,0,0,1-1.06.85Z"/><path id="Shape-19" data-name="Shape" class="cls-3" d="M146.69,78.4v-3a1,1,0,0,0-1-1H115.16a1,1,0,0,0-1,1v3Z"/><path id="Shape-20" data-name="Shape" class="cls-6" d="M120.26,74.34h-4.87a1.15,1.15,0,0,0-1.23,1v3H119v-3A1.15,1.15,0,0,1,120.26,74.34Z"/><rect id="Rectangle" class="cls-4" x="120.26" y="80.44" width="24.4" height="10.17" rx="2.03"/><path id="Rectangle-4" class="cls-4" d="M121.78,92.64h21.35a1.53,1.53,0,0,1,1.53,1.52h0a1.54,1.54,0,0,1-1.53,1.53H121.78a1.53,1.53,0,0,1-1.52-1.53h0A1.52,1.52,0,0,1,121.78,92.64Z"/><path id="Rectangle-4-2" data-name="Rectangle-4" class="cls-4" d="M121.78,97.21h21.35a1.54,1.54,0,0,1,1.53,1.53h0a1.53,1.53,0,0,1-1.53,1.52H121.78a1.52,1.52,0,0,1-1.52-1.52h0A1.53,1.53,0,0,1,121.78,97.21Z"/><path id="Rectangle-4-3" data-name="Rectangle-4" class="cls-4" d="M121.78,101.79h21.35a1.53,1.53,0,0,1,1.53,1.52h0a1.54,1.54,0,0,1-1.53,1.53H121.78a1.53,1.53,0,0,1-1.52-1.53h0A1.52,1.52,0,0,1,121.78,101.79Z"/><path id="Rectangle-4-4" data-name="Rectangle-4" class="cls-4" d="M121.78,106.36h21.35a1.53,1.53,0,0,1,1.53,1.53h0a1.53,1.53,0,0,1-1.53,1.52H121.78a1.52,1.52,0,0,1-1.52-1.52h0A1.52,1.52,0,0,1,121.78,106.36Z"/><path id="Rectangle-4-5" data-name="Rectangle-4" class="cls-4" d="M121.78,110.94h21.35a1.53,1.53,0,0,1,1.53,1.52h0a1.54,1.54,0,0,1-1.53,1.53H121.78a1.53,1.53,0,0,1-1.52-1.53h0A1.52,1.52,0,0,1,121.78,110.94Z"/></g></g></svg>