<svg xmlns="http://www.w3.org/2000/svg" xmlns:xlink="http://www.w3.org/1999/xlink" viewBox="0 0 60.18 70.74"><defs><style>.cls-1{fill:url(#Degradado_sin_nombre_99);}</style><linearGradient id="Degradado_sin_nombre_99" x1="39.89" y1="-0.1" x2="20.23" y2="68.92" gradientUnits="userSpaceOnUse"><stop offset="0" stop-color="#1f5527"/><stop offset="0.25" stop-color="#326f29"/><stop offset="0.75" stop-color="#549f2d"/><stop offset="1" stop-color="#61b22f"/></linearGradient></defs><g id="Capa_2" data-name="Capa 2"><g id="Capa_1-2" data-name="Capa 1"><path class="cls-1" d="M40.24,0l-.56,1.44c-1.08,2.82-4.84,5.21-9.54,5.21S21.65,4.22,20.6,1.37L20.26.45H19l-.3.15C7.59,6.09,0,19.2,0,34.32,0,54.26,13.37,70.74,30.14,70.74s30-16.49,30-36.42c0-15.07-7.55-28.1-18.56-33.63L40.24,0ZM18.66,3.79c2.07,3.47,6.47,5.67,11.48,5.67S39.5,7.31,41.59,3.88c9.23,5.31,15.79,16.9,15.79,30.44,0,18.69-12.32,33.61-27.24,33.61S2.81,53,2.81,34.32c0-13.58,6.58-25.24,15.86-30.53ZM18,8a25.31,25.31,0,0,0-4.69,4.41l9,11.83H37.66l9.05-11.83a25.15,25.15,0,0,0-4.5-4.27,16.93,16.93,0,0,1-12.07,4.6A16.82,16.82,0,0,1,18,8Zm-6.44,6.74A35.4,35.4,0,0,0,5.74,34.46c0,.3,0,.61,0,.91h8l6.5-9.23Zm37,0L39.7,26.14l6.5,9.23h8c0-.3,0-.61,0-.91A35.38,35.38,0,0,0,48.46,14.69ZM23.1,27l-6.63,9.42,6.63,9.43H36.87l6.63-9.43L36.87,27ZM5.92,38.17a33.92,33.92,0,0,0,7.15,18.15l7.28-9.52-6.07-8.63Zm39.77,0L39.62,46.8l7.29,9.52a33.91,33.91,0,0,0,7.14-18.15ZM22.48,48.64,15,58.44A21.24,21.24,0,0,0,30,65a21.28,21.28,0,0,0,15-6.55l-7.5-9.8Z"/></g></g></svg>